<svg width="18" height="16" viewBox="0 0 18 16" fill="none" xmlns="http://www.w3.org/2000/svg">
<path fill-rule="evenodd" clip-rule="evenodd" d="M0.25 14.6667C0.25 14.4457 0.333807 14.2337 0.482983 14.0774C0.63216 13.9211 0.834487 13.8333 1.04545 13.8333H16.9545C17.1655 13.8333 17.3678 13.9211 17.517 14.0774C17.6662 14.2337 17.75 14.4457 17.75 14.6667C17.75 14.8877 17.6662 15.0996 17.517 15.2559C17.3678 15.4122 17.1655 15.5 16.9545 15.5H1.04545C0.834487 15.5 0.63216 15.4122 0.482983 15.2559C0.333807 15.0996 0.25 14.8877 0.25 14.6667ZM0.25 8C0.25 7.77899 0.333807 7.56703 0.482983 7.41075C0.63216 7.25446 0.834487 7.16667 1.04545 7.16667H16.9545C17.1655 7.16667 17.3678 7.25446 17.517 7.41075C17.6662 7.56703 17.75 7.77899 17.75 8C17.75 8.22101 17.6662 8.43298 17.517 8.58926C17.3678 8.74554 17.1655 8.83333 16.9545 8.83333H1.04545C0.834487 8.83333 0.63216 8.74554 0.482983 8.58926C0.333807 8.43298 0.25 8.22101 0.25 8ZM0.25 1.33333C0.25 1.11232 0.333807 0.900358 0.482983 0.744078C0.63216 0.587797 0.834487 0.5 1.04545 0.5H16.9545C17.1655 0.5 17.3678 0.587797 17.517 0.744078C17.6662 0.900358 17.75 1.11232 17.75 1.33333C17.75 1.55435 17.6662 1.76631 17.517 1.92259C17.3678 2.07887 17.1655 2.16667 16.9545 2.16667H1.04545C0.834487 2.16667 0.63216 2.07887 0.482983 1.92259C0.333807 1.76631 0.25 1.55435 0.25 1.33333Z" fill="#1E1E1E"/>
<path fill-rule="evenodd" clip-rule="evenodd" d="M1.04545 0.5625C0.852026 0.5625 0.665897 0.642971 0.528193 0.787233C0.390395 0.931593 0.3125 1.12798 0.3125 1.33333C0.3125 1.53868 0.390395 1.73507 0.528193 1.87943C0.665897 2.0237 0.852026 2.10417 1.04545 2.10417H16.9545C17.148 2.10417 17.3341 2.0237 17.4718 1.87943C17.6096 1.73507 17.6875 1.53869 17.6875 1.33333C17.6875 1.12798 17.6096 0.931592 17.4718 0.787233C17.3341 0.642972 17.148 0.5625 16.9545 0.5625H1.04545ZM0.437774 0.700923C0.598423 0.532624 0.816948 0.4375 1.04545 0.4375H16.9545C17.1831 0.4375 17.4016 0.532624 17.5622 0.700923C17.7228 0.869124 17.8125 1.09666 17.8125 1.33333C17.8125 1.57001 17.7228 1.79754 17.5622 1.96574C17.4016 2.13404 17.1831 2.22917 16.9545 2.22917H1.04545C0.816948 2.22917 0.598423 2.13404 0.437774 1.96574C0.277218 1.79754 0.1875 1.57001 0.1875 1.33333C0.1875 1.09666 0.277218 0.869124 0.437774 0.700923ZM1.04545 7.22917C0.852026 7.22917 0.665897 7.30964 0.528193 7.4539C0.390395 7.59826 0.3125 7.79465 0.3125 8C0.3125 8.20535 0.390395 8.40174 0.528193 8.5461C0.665897 8.69036 0.852026 8.77083 1.04545 8.77083H16.9545C17.148 8.77083 17.3341 8.69036 17.4718 8.5461C17.6096 8.40174 17.6875 8.20535 17.6875 8C17.6875 7.79465 17.6096 7.59826 17.4718 7.4539C17.3341 7.30964 17.148 7.22917 16.9545 7.22917H1.04545ZM0.437774 7.36759C0.598423 7.19929 0.816948 7.10417 1.04545 7.10417H16.9545C17.1831 7.10417 17.4016 7.19929 17.5622 7.36759C17.7228 7.53579 17.8125 7.76332 17.8125 8C17.8125 8.23668 17.7228 8.46421 17.5622 8.63241C17.4016 8.80071 17.1831 8.89583 16.9545 8.89583H1.04545C0.816948 8.89583 0.598423 8.80071 0.437774 8.63241C0.277218 8.46421 0.1875 8.23668 0.1875 8C0.1875 7.76332 0.277218 7.53579 0.437774 7.36759ZM1.04545 13.8958C0.852026 13.8958 0.665897 13.9763 0.528193 14.1206C0.390395 14.2649 0.3125 14.4613 0.3125 14.6667C0.3125 14.872 0.390395 15.0684 0.528193 15.2128C0.665897 15.357 0.852026 15.4375 1.04545 15.4375H16.9545C17.148 15.4375 17.3341 15.357 17.4718 15.2128C17.6096 15.0684 17.6875 14.872 17.6875 14.6667C17.6875 14.4613 17.6096 14.2649 17.4718 14.1206C17.3341 13.9763 17.148 13.8958 16.9545 13.8958H1.04545ZM0.437774 14.0343C0.598423 13.866 0.816948 13.7708 1.04545 13.7708H16.9545C17.1831 13.7708 17.4016 13.866 17.5622 14.0343C17.7228 14.2025 17.8125 14.43 17.8125 14.6667C17.8125 14.9033 17.7228 15.1309 17.5622 15.2991C17.4016 15.4674 17.1831 15.5625 16.9545 15.5625H1.04545C0.816948 15.5625 0.598423 15.4674 0.437774 15.2991C0.277218 15.1309 0.1875 14.9033 0.1875 14.6667C0.1875 14.43 0.277218 14.2025 0.437774 14.0343Z" fill="#1E1E1E"/>
</svg>
