<svg width="40" height="41" viewBox="0 0 40 41" fill="none" xmlns="http://www.w3.org/2000/svg">
<path fill-rule="evenodd" clip-rule="evenodd" d="M16.6156 0.551911C12.1057 1.05133 8.22618 2.93309 5.15669 6.11014C2.87265 8.47427 1.3424 11.2054 0.545442 14.3404C0.112664 16.0429 -0.00215951 17.0167 3.05806e-05 18.9665C0.00222068 20.8981 0.109692 21.8027 0.539185 23.5031C2.34273 30.6437 8.32872 36.0331 15.758 37.2049C17.0095 37.4024 19.8209 37.4017 21.0349 37.2036C22.0684 37.0351 23.2847 36.7462 24.0324 36.4919L24.5802 36.3056L24.8773 36.7875C25.2771 37.4358 26.3492 38.5345 27.0646 39.029C31.2011 41.8886 36.8857 40.4308 39.111 35.9397C39.3529 35.4515 39.627 34.741 39.7447 34.2971C39.9285 33.6041 39.952 33.3723 39.9503 32.2635C39.9487 31.1692 39.923 30.9166 39.7463 30.2528C39.4992 29.3248 39.0522 28.3527 38.5162 27.5774C38.0216 26.8619 36.923 25.7899 36.2744 25.3899L35.7922 25.0925L35.9462 24.6498C36.1967 23.9301 36.5502 22.4051 36.6914 21.4349C36.8549 20.3119 36.875 17.7205 36.7286 16.659C35.8631 10.3859 32.1164 5.10418 26.6162 2.40325C24.8005 1.51164 22.9695 0.936507 21.0732 0.662198C20.0106 0.508422 17.5564 0.447725 16.6156 0.551911ZM19.9902 2.11267C24.5712 2.56703 28.757 4.83738 31.5997 8.4095C35.0002 12.6828 36.1382 18.304 34.6555 23.5031C34.3735 24.4915 34.4488 24.4483 33.4324 24.2057C32.4993 23.983 30.795 24.0121 29.8286 24.2672C27.5176 24.8771 25.8517 26.1427 24.5425 28.283C24.4594 28.4189 24.4068 28.3868 23.8882 27.8833C22.376 26.4151 21.2952 24.5744 20.7509 22.5403L20.577 21.8905L20.9002 21.5673L21.2234 21.2442L23.8276 21.6898C26.6302 22.1692 27.4034 22.2266 28.234 22.0162C30.0298 21.5617 31.4867 20.0143 31.8303 18.197C31.9993 17.3032 31.9951 13.5669 31.8245 12.9924C31.5832 12.1801 30.7682 11.5765 29.9126 11.5765C29.2856 11.5765 28.7758 11.8396 28.3049 12.4063C26.5234 14.5503 24.5138 15.8934 22.104 16.5506L21.3742 16.7496L21.0587 16.411L20.7431 16.0724L21.1847 13.4521C21.6573 10.6479 21.7104 9.92372 21.503 9.10791C21.2182 7.98752 20.4098 6.8439 19.4545 6.20979C19.209 6.04686 18.7073 5.80579 18.3398 5.67415L17.6715 5.43481H15.0903H12.5091L12.0908 5.66649C11.1726 6.17514 10.8057 7.30562 11.2496 8.25893C11.3891 8.55835 11.5993 8.79519 12.0897 9.20505C12.9923 9.95938 13.9108 10.9493 14.4431 11.7414C15.0162 12.5943 15.6939 14.0089 15.9373 14.86C16.2663 16.0101 16.2688 15.9542 15.8745 16.2901L15.5273 16.5859L12.9623 16.1417C10.1679 15.6577 9.42675 15.6047 8.56885 15.8274C7.28491 16.1607 5.97453 17.2221 5.40432 18.3904C4.92329 19.3762 4.87127 19.7967 4.89833 22.4816C4.92086 24.719 4.93025 24.848 5.09114 25.1457C5.48012 25.8652 6.08364 26.2338 6.87912 26.2379C7.63752 26.2418 8.06333 26.0154 8.64738 25.298C10.141 23.4634 12.1082 22.096 14.1908 21.4451C15.4494 21.0517 15.4058 21.0518 15.7647 21.4406L16.0767 21.7786L15.6307 24.3616C15.1423 27.1892 15.0918 27.912 15.3215 28.7828C15.7467 30.3945 17.0555 31.734 18.7275 32.2686C19.082 32.382 19.5383 32.4121 21.3235 32.4398L23.4893 32.4736L23.5381 32.916C23.602 33.4949 23.7791 34.3978 23.8816 34.6669L23.9629 34.8803L23.3202 35.0752C21.6235 35.5898 20.4033 35.7645 18.4537 35.7717C16.7127 35.7781 15.7337 35.6626 14.2186 35.272C8.64817 33.8356 4.16676 29.6378 2.38379 24.1858C0.636957 18.8444 1.58214 13.216 4.98602 8.68944C5.63608 7.82498 7.01709 6.40408 7.83251 5.76074C11.3071 3.01944 15.7353 1.69068 19.9902 2.11267ZM17.5964 7.08066C18.5601 7.3301 19.3287 7.97805 19.7711 8.91416C20.1552 9.72708 20.1463 10.3103 19.7112 12.8264C19.5141 13.9664 19.3341 14.9884 19.3113 15.0975C19.2701 15.2947 19.2653 15.2958 18.481 15.2873L17.6922 15.2787L17.4417 14.4632C16.8577 12.5609 15.995 11.0065 14.7198 9.55828C14.2738 9.05183 13.952 8.74709 12.9123 7.84665C12.5991 7.57539 12.548 7.33276 12.7559 7.10311C12.8753 6.97124 13.051 6.96005 15.0078 6.96005C16.6667 6.96005 17.2321 6.98641 17.5964 7.08066ZM30.2601 13.3131C30.3626 13.4595 30.3819 13.8046 30.3819 15.4993C30.3819 16.6806 30.3458 17.6829 30.2946 17.9262C30.0812 18.9396 29.4109 19.799 28.4755 20.2585C27.6156 20.681 27.0988 20.672 24.2937 20.1856C23.0315 19.9668 21.9897 19.7877 21.9783 19.7877C21.967 19.7877 21.988 19.6029 22.025 19.3771C22.0621 19.1513 22.0712 18.788 22.0452 18.5699L21.9981 18.1733L22.4551 18.0717C23.6132 17.814 25.1286 17.128 26.3795 16.2949C27.3256 15.6648 28.6236 14.4811 29.2985 13.633C29.6162 13.2337 29.7342 13.1392 29.9148 13.1392C30.0571 13.1392 30.1826 13.2024 30.2601 13.3131ZM19.0335 16.938C20.5362 17.3843 20.9844 19.3935 19.8167 20.4485C19.3892 20.8348 19.0079 20.9813 18.4139 20.9878C17.7823 20.9946 17.3089 20.7846 16.8618 20.2997C16.5478 19.959 16.3027 19.3574 16.3027 18.9274C16.3027 18.1202 16.9396 17.2353 17.7123 16.9685C18.2395 16.7865 18.5028 16.7804 19.0335 16.938ZM12.4309 17.6434C13.5494 17.8323 14.5362 18.0037 14.6239 18.0242C14.7721 18.059 14.7825 18.1175 14.7745 18.8596L14.7658 19.6577L14.1459 19.83C12.3476 20.33 10.7586 21.1806 9.1996 22.4783C8.60624 22.9721 8.1762 23.4223 7.26833 24.5004C7.05417 24.7546 6.81999 24.7753 6.60371 24.559C6.4551 24.4104 6.44728 24.2983 6.44728 22.3071C6.44728 19.5577 6.55561 19.1184 7.45433 18.2217C8.15375 17.5239 9.09862 17.1678 10.0062 17.2601C10.2213 17.282 11.3124 17.4545 12.4309 17.6434ZM18.7467 22.5587C19.022 22.5232 19.1258 22.5379 19.1487 22.6159C20.0765 25.7771 21.2405 27.6866 23.3733 29.5464L23.8345 29.9487L23.7342 30.4217L23.6338 30.8947H21.732C20.6339 30.8947 19.655 30.8578 19.4157 30.8074C17.6807 30.4426 16.5227 28.8049 16.7719 27.069C16.8628 26.436 17.3728 23.4168 17.4812 22.8699L17.5602 22.4715L17.9679 22.5391C18.1921 22.5762 18.5425 22.585 18.7467 22.5587ZM33.398 25.8112C36.8379 26.6879 39.0044 30.1366 38.2899 33.5983C38.003 34.9881 37.3889 36.0884 36.3408 37.0897C33.7468 39.568 29.7719 39.5629 27.1463 37.078C26.2748 36.2533 25.6174 35.1307 25.2887 33.906C25.0553 33.0363 25.0517 31.5023 25.2812 30.6527C25.9956 28.0068 28.1313 26.0672 30.776 25.6621C31.4749 25.555 32.6568 25.6222 33.398 25.8112ZM29.7037 27.2543C29.4047 27.3842 29.2868 27.5832 29.2868 27.9581C29.2868 28.1851 29.4518 28.4855 30.1515 29.5323C30.9511 30.7284 31.0144 30.8505 30.9924 31.1536C30.9688 31.4781 30.9653 31.4815 30.6408 31.5051C30.3377 31.5271 30.2157 31.4638 29.0195 30.6643C27.9393 29.9422 27.6769 29.7996 27.4287 29.7996C27.0527 29.7996 26.8199 29.9617 26.7078 30.3015C26.5498 30.7804 26.7218 31.0152 27.7094 31.6682C28.1883 31.9848 28.5645 32.269 28.5455 32.2998C28.5265 32.3305 28.1406 32.5989 27.6878 32.8962C26.7384 33.5197 26.5563 33.7664 26.7075 34.2246C26.7572 34.3751 26.8873 34.5568 26.9965 34.6284C27.4036 34.8951 27.6288 34.8145 28.9686 33.9217C30.1467 33.1367 30.2489 33.0848 30.6161 33.0848H31.0076V33.3962C31.0076 33.6618 30.8811 33.8984 30.1472 35.0046C29.4133 36.1108 29.2868 36.3474 29.2868 36.6131C29.2868 37.1542 29.816 37.5105 30.3134 37.3044C30.4876 37.2323 30.7195 36.9572 31.1467 36.3158C31.4722 35.8269 31.7631 35.4544 31.793 35.4878C31.823 35.5212 32.0956 35.9216 32.3989 36.3773C33.0086 37.2937 33.2388 37.4649 33.6878 37.3361C34.0139 37.2426 34.32 36.8017 34.2618 36.5094C34.2386 36.3925 33.8488 35.7415 33.3958 35.0627C32.6381 33.9276 32.572 33.7987 32.572 33.4567V33.0848H32.9439C33.286 33.0848 33.4149 33.1508 34.5499 33.9085C35.2287 34.3616 35.8797 34.7513 35.9966 34.7746C36.289 34.8328 36.7298 34.5267 36.8233 34.2005C36.9521 33.7516 36.781 33.5214 35.8646 32.9117C35.4088 32.6084 35.0085 32.3357 34.9751 32.3058C34.9416 32.2758 35.3141 31.985 35.803 31.6595C36.4444 31.2322 36.7196 31.0003 36.7917 30.8261C36.9978 30.3288 36.6414 29.7996 36.1003 29.7996C35.8346 29.7996 35.5981 29.9261 34.4918 30.66C33.3856 31.3938 33.1491 31.5204 32.8834 31.5204H32.572V31.1289C32.572 30.7617 32.6239 30.6595 33.4089 29.4813C34.3017 28.1416 34.3823 27.9164 34.1156 27.5093C34.044 27.4 33.8623 27.27 33.7118 27.2203C33.2536 27.0691 33.007 27.2511 32.3834 28.2006C32.0862 28.6533 31.8177 29.0393 31.787 29.0583C31.7562 29.0773 31.472 28.701 31.1554 28.2222C30.7279 27.5756 30.5146 27.3243 30.3269 27.2459C30.022 27.1185 30.0156 27.1185 29.7037 27.2543Z" fill="#003154"/>
</svg>
