<svg width="40" height="41" viewBox="0 0 40 41" fill="none" xmlns="http://www.w3.org/2000/svg">
<path fill-rule="evenodd" clip-rule="evenodd" d="M16.8892 0.598855C16.6218 0.727638 15.5067 2.46484 14.8325 3.80334C14.056 5.34475 13.9459 6.33161 14.4387 7.33271C14.7582 7.98179 15.2916 8.51185 15.9355 8.82024C16.4046 9.04497 16.5068 9.06366 17.2647 9.06366C17.9904 9.06366 18.1373 9.0395 18.5295 8.85567C19.6039 8.35203 20.3924 7.16569 20.3924 6.05325C20.3924 5.28321 19.7112 3.71162 18.6075 1.93532C17.7555 0.564059 17.4519 0.327918 16.8892 0.598855ZM17.8282 3.688C18.4212 4.72703 18.8286 5.68856 18.8286 6.04926C18.8286 6.35515 18.6393 6.81562 18.4143 7.05677C17.8947 7.61381 16.912 7.7078 16.3489 7.25428C15.6155 6.66362 15.5282 5.99961 16.0413 4.91453C16.4142 4.12604 17.1784 2.76916 17.2497 2.76924C17.2794 2.76932 17.5398 3.18272 17.8282 3.688ZM29.1209 6.06912C28.6089 6.25545 26.6085 9.80727 26.3743 10.946C25.9529 12.995 27.8016 14.9128 29.8763 14.5787C31.6428 14.2942 32.8223 12.6441 32.473 10.946C32.3278 10.2401 31.4137 8.39206 30.5708 7.10064C30.0748 6.34061 29.9025 6.13652 29.6963 6.06459C29.4008 5.96161 29.4167 5.96145 29.1209 6.06912ZM9.50321 6.84815C9.26175 6.93635 8.37724 8.16429 6.80901 10.5884C2.53688 17.1925 0.180164 22.1793 0.00978288 24.9758C-0.0443263 25.8651 0.130434 27.1902 0.424828 28.1221C1.37948 31.144 3.69804 33.5108 6.69672 34.5245C7.7793 34.8904 8.56764 35.0106 9.9299 35.0174L11.1572 35.0236L11.552 35.6805C12.1025 36.5963 12.4859 37.073 13.2794 37.8281C14.6486 39.1311 16.2152 39.9476 18.1249 40.3536C19.0335 40.5468 20.9604 40.5492 21.8514 40.3582C23.8418 39.9316 25.3684 39.1269 26.8067 37.7464L27.5634 37.0202L27.987 37.2495C28.2199 37.3757 28.7792 37.6022 29.2298 37.7529C31.6635 38.5662 34.318 38.1811 36.4534 36.7048C38.0485 35.6022 39.2453 33.8885 39.7586 31.9722C39.9438 31.2806 39.9675 31.0503 39.9675 29.941C39.9675 28.8318 39.9438 28.6015 39.7586 27.9098C38.9746 24.9831 36.714 22.7236 33.8007 21.9551C33.1283 21.7777 32.8531 21.7483 31.8085 21.7421C30.7749 21.7359 30.4938 21.7617 29.8981 21.9174C29.0868 22.1295 28.1505 22.5099 27.5877 22.8562C27.3706 22.9899 27.1789 23.0992 27.1618 23.0992C27.1448 23.0992 26.9305 22.7241 26.6857 22.2656C26.075 21.1221 25.0799 19.4281 24.006 17.7039C22.7595 15.7027 20.6393 12.5607 20.4424 12.4228C20.3528 12.36 20.1419 12.3086 19.9738 12.3086C19.5535 12.3086 19.4328 12.4522 17.8556 14.8279L16.5308 16.8235L15.6823 15.3398C14.5924 13.4338 13.1853 11.1892 11.6063 8.83799C10.5981 7.33662 10.302 6.94941 10.0968 6.86364C9.80527 6.74189 9.7951 6.74158 9.50321 6.84815ZM30.0853 9.33733C31.0062 10.9852 31.1482 11.5771 30.7816 12.2411C30.5718 12.6212 30.2089 12.8957 29.7544 13.0181C28.7128 13.2986 27.6282 12.2274 27.9042 11.1908C28.0143 10.7768 28.5595 9.64408 29.0383 8.8344C29.4662 8.11081 29.3754 8.0671 30.0853 9.33733ZM10.9122 10.608C12.6402 13.2354 14.4468 16.2267 15.343 17.9446L15.5706 18.3807L15.1001 19.1566C13.0171 22.5921 11.4505 25.7453 10.7516 27.9094C10.2888 29.3422 10.2008 29.925 10.251 31.2268C10.2751 31.8528 10.3509 32.59 10.4193 32.8651C10.4877 33.1401 10.5222 33.3864 10.4959 33.4124C10.3976 33.5101 8.8338 33.4403 8.19442 33.3097C6.64301 32.9927 5.32726 32.3082 4.17056 31.2163C2.98555 30.0977 2.21372 28.8058 1.80665 27.2595C1.64385 26.641 1.60507 26.3053 1.59717 25.445C1.58865 24.5133 1.61281 24.2986 1.80336 23.6164C2.59483 20.7817 5.03709 16.142 8.52721 10.8425C9.21405 9.79961 9.7858 8.94637 9.79768 8.94637C9.80957 8.94637 10.3111 9.69412 10.9122 10.608ZM21.0773 16.0423C22.8648 18.7599 24.0307 20.6771 25.2473 22.8993L25.9299 24.146L25.5265 24.5924C24.7223 25.4823 24.0076 26.9267 23.7037 28.2766C23.5073 29.1487 23.5247 30.8482 23.7388 31.7166C24.1161 33.2473 24.7439 34.4426 25.7191 35.4867L26.281 36.0884L25.8975 36.4819C24.2668 38.1553 21.8756 39.081 19.5323 38.9457C17.4899 38.8278 15.6842 38.0155 14.208 36.5504C12.9755 35.3273 12.2558 33.9847 11.9052 32.2543C11.7116 31.2988 11.7777 29.8652 12.0588 28.9245C12.7439 26.632 14.629 22.867 17.0503 18.955C18.0586 17.3262 19.9313 14.498 20.0016 14.498C20.0346 14.498 20.5187 15.1929 21.0773 16.0423ZM33.3333 23.4487C35.0064 23.8888 36.392 24.8674 37.3239 26.2673C39.6013 29.6879 38.292 34.2511 34.5331 35.994C33.5214 36.4631 32.957 36.5801 31.7304 36.5748C30.8173 36.571 30.5802 36.5419 29.9749 36.3596C27.6508 35.6599 25.9185 33.8872 25.3075 31.5831C25.0727 30.6974 25.0736 29.1781 25.3095 28.299C26.0114 25.684 28.0525 23.8259 30.7655 23.3321C31.2989 23.235 32.7758 23.3021 33.3333 23.4487ZM29.6798 24.9413C29.4119 25.0867 29.3064 25.2813 29.3064 25.6304C29.3064 25.8482 29.4823 26.1694 30.1665 27.2008C30.9001 28.3067 31.0266 28.5431 31.0266 28.8087V29.12H30.6353C30.2684 29.12 30.166 29.0681 29.0004 28.2915C27.6719 27.4063 27.4172 27.3146 27.0162 27.5773C26.9073 27.6486 26.7776 27.8301 26.7279 27.9805C26.5768 28.4386 26.7587 28.6852 27.7079 29.3085C28.1605 29.6057 28.5482 29.8772 28.5697 29.9118C28.591 29.9464 28.2043 30.2428 27.7103 30.5704C26.9842 31.0519 26.7956 31.216 26.7261 31.4265C26.621 31.7449 26.7751 32.1848 27.0416 32.3275C27.4576 32.55 27.6954 32.4585 29.068 31.5466C30.2514 30.7603 30.4125 30.6758 30.6849 30.6982C30.9797 30.7223 30.9882 30.7314 31.0114 31.0506C31.0333 31.3536 30.9701 31.4756 30.1708 32.6714C29.4713 33.7178 29.3064 34.0181 29.3064 34.2451C29.3064 34.6288 29.4259 34.8206 29.7494 34.9558C30.2524 35.1659 30.4809 35.0162 31.118 34.0587C31.4231 33.6002 31.6999 33.195 31.7333 33.1582C31.7666 33.1214 32.0497 33.4732 32.3624 33.9401C32.6751 34.407 32.9863 34.8313 33.0539 34.883C33.4321 35.1722 33.9892 35.0157 34.2069 34.5592C34.3797 34.1968 34.3156 34.049 33.3795 32.6493C32.6408 31.5448 32.5905 31.4445 32.5905 31.0767V30.6839H32.8983C33.1591 30.6839 33.4013 30.8133 34.4817 31.5299C35.1833 31.9952 35.8419 32.398 35.9456 32.425C36.2186 32.4962 36.6271 32.2968 36.7686 32.0232C37.0402 31.4979 36.8719 31.2386 35.7987 30.5291C35.3211 30.2132 34.958 29.9299 34.9919 29.8995C35.0258 29.8692 35.4264 29.5962 35.882 29.2931C36.4772 28.897 36.7388 28.6733 36.8113 28.4982C36.9434 28.1793 36.8408 27.8186 36.5578 27.6073C36.1589 27.3094 35.9267 27.3895 34.5762 28.2909C33.4332 29.0539 33.3044 29.12 32.9623 29.12H32.5905V28.7663C32.5905 28.4481 32.6698 28.2941 33.3795 27.2328C34.3156 25.8331 34.3797 25.6853 34.2069 25.3229C34.0287 24.9493 33.6657 24.7771 33.2923 24.889C33.0427 24.9637 32.9243 25.0946 32.4319 25.8392C32.1179 26.3142 31.8359 26.7183 31.8054 26.7371C31.7748 26.756 31.4927 26.3826 31.1786 25.9074C30.4752 24.8437 30.1939 24.6623 29.6798 24.9413Z" fill="#003154"/>
</svg>
