<svg width="17" height="14" viewBox="0 0 17 14" fill="none" xmlns="http://www.w3.org/2000/svg">
<path d="M1.9999 0.999902C1.44762 0.999902 0.999902 1.44762 0.999902 1.9999V11.9999C0.999902 12.5522 1.44762 12.9999 1.9999 12.9999H14.9999C15.5522 12.9999 15.9999 12.5522 15.9999 11.9999V1.9999C15.9999 1.44762 15.5522 0.999902 14.9999 0.999902H1.9999ZM7.8999 8.1749C8.07334 8.30393 8.28374 8.37361 8.4999 8.37361C8.71606 8.37361 8.92647 8.30393 9.0999 8.1749L9.83325 7.6249L14.9999 11.4999V11.9999H1.9999V11.4999L7.16656 7.6249L7.8999 8.1749ZM8.4999 7.3749L1.9999 2.4999V1.9999H14.9999V2.4999L8.4999 7.3749ZM1.9999 3.7499L6.33325 6.9999L1.9999 10.2499V3.7499ZM14.9999 10.2499L10.6666 6.9999L14.9999 3.7499V10.2499Z" fill="#003154"/>
<path fill-rule="evenodd" clip-rule="evenodd" d="M1.9999 1.0999C1.50285 1.0999 1.0999 1.50285 1.0999 1.9999V11.9999C1.0999 12.497 1.50285 12.8999 1.9999 12.8999H14.9999C15.497 12.8999 15.8999 12.497 15.8999 11.9999V1.9999C15.8999 1.50285 15.497 1.0999 14.9999 1.0999H1.9999ZM0.899902 1.9999C0.899902 1.39239 1.39239 0.899902 1.9999 0.899902H14.9999C15.6074 0.899902 16.0999 1.39239 16.0999 1.9999V11.9999C16.0999 12.6074 15.6074 13.0999 14.9999 13.0999H1.9999C1.39239 13.0999 0.899902 12.6074 0.899902 11.9999V1.9999ZM1.8999 1.8999H15.0999V2.5499L8.4999 7.4999L1.8999 2.5499V1.8999ZM2.0999 2.0999V2.4499L8.4999 7.2499L14.8999 2.4499V2.0999H2.0999ZM1.8999 3.5499L6.49991 6.9999L1.8999 10.4499V3.5499ZM15.0999 3.5499V10.4499L10.4999 6.9999L15.0999 3.5499ZM2.0999 3.9499V10.0499L6.16658 6.9999L2.0999 3.9499ZM10.8332 6.9999L14.8999 10.0499V3.9499L10.8332 6.9999ZM7.16656 7.4999L7.95959 8.09467C8.11574 8.21079 8.30531 8.27361 8.4999 8.27361C8.6945 8.27361 8.88391 8.2109 9.04006 8.09478L9.83325 7.4999L15.0999 11.4499V12.0999H1.8999V11.4499L7.16656 7.4999ZM7.16656 7.7499L2.0999 11.5499V11.8999H14.8999V11.5499L9.83325 7.7499L9.1599 8.2549C8.96922 8.39676 8.73757 8.47361 8.4999 8.47361C8.26224 8.47361 8.0309 8.39699 7.84021 8.25514L7.16656 7.7499Z" fill="#003154"/>
</svg>
