<svg width="24" height="24" viewBox="0 0 24 24" fill="none" xmlns="http://www.w3.org/2000/svg">
<path d="M12 0C5.36937 0 0 5.3734 0 12.009C0 17.0939 3.15315 21.4395 7.62162 23.1886C7.51351 22.2329 7.42342 20.7904 7.65766 19.7446C7.87387 18.8069 9.06306 13.7761 9.06306 13.7761C9.06306 13.7761 8.7027 13.0548 8.7027 11.991C8.7027 10.314 9.67568 9.06987 10.8649 9.06987C11.8919 9.06987 12.3784 9.84523 12.3784 10.7648C12.3784 11.7926 11.7297 13.3434 11.3874 14.7678C11.0991 15.9579 11.982 16.9316 13.1712 16.9316C15.2973 16.9316 16.9369 14.6777 16.9369 11.432C16.9369 8.56499 14.8649 6.54545 11.9279 6.54545C8.52252 6.54545 6.5045 9.10593 6.5045 11.7566C6.5045 12.7844 6.9009 13.9023 7.40541 14.4974C7.4955 14.6236 7.51351 14.7137 7.4955 14.84C7.40541 15.2186 7.20721 16.0301 7.17117 16.1923C7.11712 16.4087 6.99099 16.4628 6.77478 16.3546C5.27928 15.6514 4.34234 13.4696 4.34234 11.7025C4.34234 7.91585 7.0991 4.43576 12.2703 4.43576C16.4324 4.43576 19.6577 7.41097 19.6577 11.3599C19.6577 15.4891 17.045 18.8249 13.4414 18.8249C12.2342 18.8249 11.0811 18.1938 10.6847 17.4545C10.6847 17.4545 10.0901 19.7446 9.94595 20.3035C9.67568 21.3494 8.93694 22.6476 8.45045 23.4591C9.56757 23.8017 10.7568 24 12 24C18.6306 24 24 18.6266 24 11.991C24 5.3734 18.6306 0 12 0Z" fill="white"/>
</svg>
