<svg width="41" height="41" viewBox="0 0 41 41" fill="none" xmlns="http://www.w3.org/2000/svg">
<path fill-rule="evenodd" clip-rule="evenodd" d="M18.0931 0.547852C11.9871 1.17418 6.59192 4.45094 3.22403 9.5786C-1.81015 17.2432 -0.862953 27.6674 5.46433 34.2338C6.03223 34.8231 6.24609 34.9375 6.6139 34.8486C6.91052 34.777 9.89347 31.7867 9.93422 31.5201C9.9896 31.1579 9.85052 30.8847 9.32924 30.3322C8.80218 29.7735 7.88502 28.5891 7.88502 28.4672C7.88502 28.4304 8.21848 28.2041 8.6261 27.9642C9.03372 27.7243 9.40332 27.4605 9.44744 27.378C9.6067 27.0806 9.54295 26.6736 9.29905 26.4296C8.97482 26.1054 8.67436 26.1266 8.0011 26.5211C6.95057 27.1367 7.07439 27.1356 6.78935 26.5319C6.19282 25.2684 5.65465 23.2505 5.56125 21.9272L5.51604 21.2865L6.47278 21.2602C7.40989 21.2343 7.43344 21.2293 7.6182 21.0143C7.74758 20.8638 7.80679 20.6993 7.80679 20.4907C7.80679 20.2821 7.74758 20.1176 7.6182 19.9671C7.43344 19.7521 7.40989 19.747 6.47278 19.7212L5.51604 19.6948L5.56125 19.0542C5.65535 17.7215 6.17554 15.7785 6.77386 14.5253L7.06368 13.9182L7.80679 14.3489C8.68657 14.8586 8.95557 14.8952 9.29905 14.5518C9.54295 14.3078 9.6067 13.9008 9.44744 13.6033C9.40332 13.5209 9.03372 13.2571 8.6261 13.0172C8.21848 12.7773 7.88502 12.5607 7.88502 12.5357C7.88502 12.3567 8.95213 11.0537 9.76236 10.2435C10.5726 9.43326 11.8756 8.36614 12.0546 8.36614C12.0796 8.36614 12.2962 8.69961 12.5361 9.10723C12.776 9.51485 13.0397 9.88445 13.1222 9.92857C13.4197 10.0878 13.8267 10.0241 14.0706 9.78018C14.414 9.4367 14.3775 9.16769 13.8677 8.28792L13.4371 7.5448L14.0442 7.25499C15.2974 6.65666 17.2404 6.13648 18.5731 6.04238L19.2137 5.99717L19.2401 6.95391C19.2659 7.89102 19.271 7.91456 19.4859 8.09933C19.7836 8.35511 20.2355 8.35511 20.5332 8.09933C20.7481 7.91456 20.7532 7.89102 20.779 6.95391L20.8054 5.99717L21.446 6.04238C22.7787 6.13648 24.7217 6.65666 25.9749 7.25499L26.582 7.5448L26.1514 8.28792C25.6416 9.16769 25.6051 9.4367 25.9485 9.78018C26.1924 10.0241 26.5994 10.0878 26.8969 9.92857C26.9794 9.88445 27.2431 9.51485 27.483 9.10723C27.7229 8.69961 27.9395 8.36614 27.9645 8.36614C28.1436 8.36614 29.4465 9.43326 30.2567 10.2435C31.067 11.0537 32.1341 12.3567 32.1341 12.5357C32.1341 12.5607 31.8006 12.7773 31.393 13.0172C30.9854 13.2571 30.6158 13.5209 30.5717 13.6033C30.4124 13.9008 30.4762 14.3078 30.7201 14.5518C31.0624 14.8941 31.3321 14.858 32.2123 14.3522L32.9554 13.9252L33.2452 14.5288C33.8413 15.7701 34.3637 17.7195 34.4579 19.0542L34.5031 19.6948L33.5463 19.7212C32.6092 19.747 32.5857 19.7521 32.4009 19.9671C32.1451 20.2647 32.1451 20.7167 32.4009 21.0143C32.5857 21.2293 32.6092 21.2343 33.5463 21.2602L34.5031 21.2865L34.4579 21.9272C34.4094 22.6131 34.1188 24.1666 34.0201 24.267C33.9873 24.3004 33.7167 24.2681 33.4188 24.1952C32.6968 24.0187 30.9065 24.0164 30.1321 24.1912C28.4427 24.5722 27.0202 25.3653 25.8735 26.5655C24.9943 27.4857 24.4746 28.3062 24.0717 29.4103C23.1906 31.8244 23.4316 34.333 24.7576 36.5511C25.2258 37.3343 26.3145 38.4892 27.0902 39.0254C31.2326 41.8891 36.9159 40.4341 39.1429 35.9397C39.3848 35.4514 39.6589 34.7409 39.7766 34.297C39.9604 33.604 39.9839 33.3721 39.9823 32.2632C39.9806 31.1622 39.9554 30.9175 39.7733 30.2294C39.6537 29.7782 39.3822 29.0768 39.1316 28.5718L38.6971 27.6964L38.9404 27.0073C40.5821 22.3572 40.3357 16.8434 38.2826 12.2921C36.5331 8.41378 33.5229 5.12271 29.793 3.01031C27.782 1.87146 25.2423 1.01711 22.7865 0.653531C21.8299 0.51187 19.0534 0.44937 18.0931 0.547852ZM22.7082 2.22378C26.6664 2.83423 30.2017 4.62749 33.0372 7.46298C34.5117 8.93748 35.5859 10.4213 36.5178 12.2712C37.3868 13.996 37.982 15.8834 38.2837 17.8702C38.4801 19.1631 38.4824 21.8118 38.2884 23.072C38.1382 24.048 37.9295 24.9958 37.6802 25.8348L37.5216 26.3683L37.1747 26.0484C36.8605 25.7588 35.7706 25.0012 35.5738 24.9356C35.523 24.9187 35.5525 24.6725 35.6539 24.2649C36.4297 21.1478 36.1826 17.6282 34.9742 14.5849C33.2334 10.2005 29.5652 6.71721 25.1389 5.24529C21.0602 3.88898 16.78 4.17238 12.9304 6.05372C9.07831 7.93623 6.11444 11.3245 4.74993 15.4058C3.00649 20.6203 4.05765 26.387 7.5284 30.6485L8.06086 31.3024L7.25047 32.1156C6.80468 32.5629 6.41294 32.9198 6.37985 32.9088C6.23999 32.8622 5.16318 31.4886 4.58761 30.6227C3.1329 28.4343 2.13431 25.8041 1.73131 23.0996C1.53919 21.8098 1.5413 19.0808 1.73553 17.8311C2.83605 10.749 7.63775 5.11755 14.4781 2.88664C15.6427 2.50679 16.7782 2.2833 18.6015 2.07515C19.1849 2.00851 21.9649 2.10918 22.7082 2.22378ZM19.4891 10.1166L19.2728 10.3027L18.5181 15.9247L17.7633 21.5467L17.2633 22.0551C16.4654 22.8666 16.0984 23.7289 16.0984 24.7929C16.0984 26.6379 17.3713 28.2261 19.1731 28.6293C19.744 28.757 20.7969 28.6893 21.3525 28.4891C22.8677 27.943 23.9207 26.4276 23.9207 24.7929C23.9207 23.7289 23.5537 22.8666 22.7558 22.0551L22.2558 21.5467L21.501 15.9247L20.7463 10.3027L20.53 10.1166C20.3824 9.98974 20.2171 9.9306 20.0096 9.9306C19.802 9.9306 19.6367 9.98974 19.4891 10.1166ZM20.3086 18.8284C20.4474 19.8933 20.5601 20.7997 20.559 20.8427C20.5579 20.8872 20.3212 20.9209 20.0096 20.9209C19.6979 20.9209 19.4612 20.8872 19.4601 20.8427C19.4543 20.6032 19.9704 16.8924 20.0096 16.8924C20.0353 16.8924 20.1699 17.7636 20.3086 18.8284ZM21.0606 22.7142C22.0895 23.2176 22.5778 24.3821 22.2428 25.534C22.0706 26.1264 21.4178 26.8109 20.8365 27.0085C19.9205 27.3201 19.0355 27.1156 18.3543 26.4351C17.868 25.9494 17.6625 25.4624 17.6633 24.7983C17.6654 23.0607 19.486 21.9438 21.0606 22.7142ZM33.4295 25.8105C36.8696 26.6873 39.0362 30.1362 38.3217 33.5981C38.0348 34.988 37.4206 36.0884 36.3725 37.0897C33.7783 39.5682 29.8032 39.5631 27.1773 37.0781C26.3059 36.2533 25.6484 35.1306 25.3196 33.9059C25.0862 33.0361 25.0826 31.502 25.3121 30.6524C26.0266 28.0063 28.1624 26.0666 30.8074 25.6614C31.5063 25.5544 32.6882 25.6215 33.4295 25.8105ZM29.7349 27.2537C29.4359 27.3837 29.3181 27.5827 29.3181 27.9575C29.3181 28.1846 29.483 28.485 30.1828 29.5318C30.9824 30.7281 31.0457 30.8501 31.0237 31.1532C31.0001 31.4778 30.9966 31.4812 30.6721 31.5048C30.369 31.5268 30.247 31.4635 29.0507 30.6639C27.9704 29.9418 27.708 29.7992 27.4598 29.7992C27.0838 29.7992 26.851 29.9613 26.7388 30.3012C26.5808 30.78 26.7529 31.0149 27.7405 31.6679C28.2194 31.9845 28.5957 32.2688 28.5767 32.2995C28.5577 32.3302 28.1717 32.5987 27.719 32.896C26.7694 33.5196 26.5874 33.7663 26.7386 34.2245C26.7883 34.375 26.9183 34.5567 27.0276 34.6283C27.4347 34.895 27.6599 34.8144 28.9998 33.9215C30.178 33.1365 30.2802 33.0846 30.6475 33.0846H31.039V33.396C31.039 33.6617 30.9124 33.8982 30.1785 35.0045C29.4446 36.1108 29.3181 36.3474 29.3181 36.6131C29.3181 37.1543 29.8472 37.5106 30.3447 37.3045C30.5189 37.2324 30.7508 36.9572 31.178 36.3158C31.5036 35.8269 31.7944 35.4543 31.8244 35.4878C31.8544 35.5212 32.127 35.9215 32.4303 36.3773C33.0401 37.2938 33.2703 37.465 33.7193 37.3362C34.0455 37.2426 34.3515 36.8018 34.2934 36.5094C34.2701 36.3925 33.8803 35.7415 33.4273 35.0627C32.6695 33.9275 32.6034 33.7986 32.6034 33.4565V33.0846H32.9754C33.3174 33.0846 33.4464 33.1507 34.5815 33.9084C35.2603 34.3615 35.9114 34.7512 36.0283 34.7745C36.3206 34.8327 36.7615 34.5266 36.8551 34.2004C36.9838 33.7514 36.8127 33.5212 35.8962 32.9114C35.4404 32.6082 35.0401 32.3355 35.0067 32.3055C34.9732 32.2756 35.3458 31.9847 35.8347 31.6592C36.4761 31.2319 36.7513 31 36.8234 30.8258C37.0295 30.3284 36.6731 29.7992 36.132 29.7992C35.8663 29.7992 35.6297 29.9257 34.5234 30.6596C33.4171 31.3935 33.1806 31.5201 32.9149 31.5201H32.6034V31.1286C32.6034 30.7613 32.6554 30.6591 33.4404 29.4809C34.3332 28.141 34.4139 27.9158 34.1472 27.5088C34.0756 27.3995 33.8939 27.2694 33.7434 27.2197C33.2851 27.0685 33.0384 27.2505 32.4148 28.2001C32.1176 28.6528 31.8491 29.0388 31.8184 29.0578C31.7876 29.0768 31.5034 28.7006 31.1867 28.2217C30.7592 27.575 30.5459 27.3238 30.3582 27.2453C30.0533 27.1179 30.0469 27.118 29.7349 27.2537Z" fill="#003154"/>
</svg>
