<svg width="18" height="18" viewBox="0 0 18 18" fill="none" xmlns="http://www.w3.org/2000/svg">
<path d="M7.78435 0.25C3.6319 0.25 0.25 3.63187 0.25 7.78434C0.25 11.9368 3.6319 15.3187 7.78435 15.3187C9.59888 15.3187 11.2669 14.6759 12.5693 13.6022H12.5768L16.5035 17.5365C16.7882 17.8212 17.2517 17.8212 17.5364 17.5365C17.8212 17.2517 17.8212 16.7958 17.5364 16.5111L13.5946 12.5769C13.5958 12.5744 13.5946 12.5693 13.5946 12.5693C14.6683 11.267 15.3187 9.59898 15.3187 7.78441C15.3187 3.63195 11.9368 0.25 7.78435 0.25ZM7.78435 1.70826C11.1487 1.70826 13.8604 4.41999 13.8604 7.78434C13.8604 11.1487 11.1487 13.8604 7.78435 13.8604C4.42001 13.8604 1.70826 11.1487 1.70826 7.78434C1.70826 4.41999 4.42001 1.70826 7.78435 1.70826Z" fill="#1E1E1E"/>
<path fill-rule="evenodd" clip-rule="evenodd" d="M0.1875 7.78434C0.1875 3.59736 3.59738 0.1875 7.78435 0.1875H7.85782C12.0112 0.227082 15.3812 3.62193 15.3812 7.78441C15.3812 9.59573 14.7385 11.2621 13.6754 12.5692L17.5806 16.4669C17.8897 16.776 17.8898 17.2715 17.5806 17.5807C17.2715 17.8898 16.7684 17.8898 16.4593 17.5807L12.5692 13.683C11.2619 14.746 9.59546 15.3812 7.78435 15.3812C3.59738 15.3812 0.1875 11.9713 0.1875 7.78434ZM7.75081 0.312574C3.64823 0.330725 0.3125 3.67758 0.3125 7.78434C0.3125 11.9022 3.66641 15.2562 7.78435 15.2562C9.58387 15.2562 11.2379 14.6187 12.5295 13.554L12.5468 13.5397H12.6028L16.5477 17.4923C16.808 17.7525 17.2319 17.7526 17.4923 17.4923C17.7526 17.2319 17.7526 16.8156 17.4923 16.5553L13.5185 12.5892L13.5323 12.5616L13.5332 12.5569C13.5349 12.5488 13.5387 12.5389 13.5464 12.5296C14.6113 11.2379 15.2562 9.58379 15.2562 7.78441C15.2562 3.66647 11.9023 0.312574 7.78433 0.312574H7.75081ZM7.78435 1.77076C4.45453 1.77076 1.77076 4.45451 1.77076 7.78434C1.77076 11.1141 4.45453 13.7979 7.78435 13.7979C11.1142 13.7979 13.7979 11.1141 13.7979 7.78434C13.7979 4.45451 11.1142 1.77076 7.78435 1.77076ZM1.64576 7.78434C1.64576 4.38547 4.38549 1.64576 7.78435 1.64576C11.1832 1.64576 13.9229 4.38547 13.9229 7.78434C13.9229 11.1832 11.1832 13.9229 7.78435 13.9229C4.3855 13.9229 1.64576 11.1832 1.64576 7.78434Z" fill="#1E1E1E"/>
</svg>
