<svg width="24" height="24" viewBox="0 0 24 24" fill="none" xmlns="http://www.w3.org/2000/svg">
<path d="M1.4714 10.71C1.4714 10.71 12.086 6.31967 15.7673 4.77372C17.1786 4.15538 21.9643 2.17655 21.9643 2.17655C21.9643 2.17655 24.1732 1.31088 23.9891 3.4133C23.9277 4.27905 23.4369 7.30901 22.9461 10.5864C22.2098 15.2242 21.4121 20.2948 21.4121 20.2948C21.4121 20.2948 21.2894 21.717 20.2464 21.9644C19.2033 22.2117 17.4853 21.0987 17.1786 20.8513C16.9331 20.6658 12.5768 17.8831 10.9816 16.5227C10.5521 16.1517 10.0613 15.4097 11.0429 14.544C13.2518 12.5033 15.8901 9.96805 17.4853 8.3603C18.2216 7.61822 18.9579 5.8868 15.8901 7.98921C11.5338 11.0193 7.23888 13.8638 7.23888 13.8638C7.23888 13.8638 6.25715 14.4821 4.41649 13.9255C2.57575 13.3691 0.428278 12.627 0.428278 12.627C0.428278 12.627 -1.04418 11.6995 1.4714 10.71Z" fill="white"/>
</svg>
