<svg width="34" height="41" viewBox="0 0 34 41" fill="none" xmlns="http://www.w3.org/2000/svg">
<path fill-rule="evenodd" clip-rule="evenodd" d="M21.7244 0.616651C20.1232 1.00405 18.8448 2.31795 18.5039 3.92638C18.4133 4.35368 18.3942 6.23749 18.393 14.864L18.3917 25.2854L17.9272 25.6008C16.3804 26.6513 15.2263 28.2849 14.7398 30.1125C14.4721 31.118 14.4366 32.8468 14.662 33.8967C15.3359 37.0354 17.6275 39.4916 20.6213 40.2841C21.3016 40.4643 21.5668 40.4923 22.6553 40.4993C23.621 40.5054 24.0482 40.4741 24.5252 40.3624C26.1884 39.9725 27.3926 39.2875 28.5799 38.0558C31.277 35.258 31.7281 30.9036 29.6436 27.7872C29.0918 26.9624 28.4136 26.2544 27.5954 25.6493L26.9993 25.2085L26.9787 14.5126L26.958 3.81678L26.7821 3.35044C26.0064 1.29398 23.8167 0.110417 21.7244 0.616651ZM23.4745 2.18049C24.294 2.42387 24.9849 3.05653 25.2734 3.82773C25.4305 4.24744 25.4326 4.39131 25.4369 14.9873C25.4402 23.0919 25.4642 25.7874 25.5347 25.9903C25.6085 26.2027 25.7511 26.3328 26.2148 26.6105C26.9207 27.0333 28.0972 28.1896 28.4722 28.829C29.0871 29.8778 29.3635 30.916 29.3632 32.1756C29.3628 33.9659 28.7338 35.6017 27.5535 36.8824C26.3681 38.1685 24.8755 38.8616 23.0856 38.957C18.8692 39.1819 15.4598 35.3991 16.1275 31.2368C16.2451 30.5037 16.6001 29.5261 16.9826 28.8823C17.4289 28.1311 18.2792 27.2536 19.072 26.7261C19.4306 26.4875 19.7762 26.2177 19.8401 26.1264C19.9415 25.9816 19.9563 24.594 19.9563 15.2281C19.9563 5.00926 19.9632 4.47345 20.1009 4.03113C20.5574 2.56422 22.0358 1.75327 23.4745 2.18049ZM7.32195 2.94826C5.44519 3.26321 3.92781 4.06837 2.62088 5.44282C-0.428965 8.65014 -0.428965 13.5344 2.62088 16.7418C4.3404 18.5501 6.68484 19.4793 9.1068 19.3124C12.6641 19.0675 15.6404 16.5917 16.571 13.1033C16.7489 12.4366 16.7735 12.1913 16.7735 11.0923C16.7735 9.99329 16.7489 9.74796 16.571 9.08127C15.6143 5.49531 12.5378 3.01154 8.88658 2.87761C8.30117 2.85618 7.71225 2.88278 7.32195 2.94826ZM10.1774 4.6048C10.786 4.75978 11.8202 5.22776 12.3423 5.58449C13.6202 6.45771 14.6296 7.89067 15.0403 9.41454C15.2702 10.2678 15.2908 11.8342 15.0823 12.6178C14.5272 14.7042 13.2337 16.2695 11.3387 17.1482C10.3148 17.623 9.75956 17.7383 8.53454 17.7307C7.63026 17.725 7.37945 17.6943 6.79022 17.5172C4.84015 16.9308 3.38989 15.7068 2.55321 13.9408C2.09258 12.9686 1.93988 12.2592 1.93988 11.0923C1.93988 10.2944 1.97633 9.94041 2.10917 9.44943C2.82272 6.81241 4.93707 4.90482 7.62041 4.47697C8.20166 4.38435 9.58245 4.45335 10.1774 4.6048ZM29.0135 4.52328C28.5667 4.77034 28.4956 5.36646 28.8686 5.73947L29.0973 5.96814H30.9066C32.9012 5.96814 33.0754 5.93395 33.2519 5.50759C33.3771 5.20538 33.2983 4.86203 33.0499 4.62851C32.8548 4.44513 32.828 4.44239 31.0394 4.42401C29.5457 4.40868 29.1892 4.4262 29.0135 4.52328ZM6.52626 6.0822C6.22726 6.21222 6.10937 6.41124 6.10937 6.78612C6.10937 7.01323 6.27436 7.31364 6.97421 8.36061C7.77389 9.557 7.83718 9.67904 7.8152 9.98218C7.79181 10.304 7.78571 10.3104 7.47842 10.333C7.19545 10.3537 7.04157 10.2745 5.87147 9.50536C5.15972 9.03754 4.49413 8.63301 4.39227 8.60641C3.86695 8.46896 3.35023 9.06813 3.52844 9.60816C3.59775 9.81805 3.78308 9.98398 4.45157 10.4344C4.91157 10.7445 5.31837 11.0252 5.35553 11.0581C5.39277 11.091 5.01609 11.388 4.51846 11.718C3.78653 12.2033 3.59736 12.3677 3.52782 12.5785C3.33967 13.1484 3.87813 13.7253 4.44625 13.5624C4.57439 13.5257 5.21135 13.1397 5.86177 12.7046C6.96905 11.9641 7.06942 11.9137 7.43742 11.9137H7.83046V12.2284C7.83046 12.4986 7.70912 12.7245 6.96991 13.8304C6.25159 14.905 6.10937 15.1669 6.10937 15.415C6.10937 15.9777 6.56045 16.3121 7.08562 16.1387C7.31953 16.0615 7.46066 15.9052 7.92191 15.2119C8.22717 14.7533 8.50074 14.3512 8.53 14.3185C8.55926 14.2858 8.85599 14.6634 9.18933 15.1577C9.71583 15.9383 9.83443 16.0681 10.0911 16.145C10.4838 16.2627 10.8464 16.0846 11.0096 15.6941C11.1683 15.3145 11.116 15.1947 10.1845 13.8019C9.47441 12.7401 9.39508 12.586 9.39508 12.2676V11.9137H9.76707C10.1086 11.9137 10.2382 11.9798 11.3513 12.7217C12.0179 13.1661 12.6482 13.5515 12.7518 13.5782C13.0256 13.6486 13.4338 13.4488 13.5753 13.1754C13.8468 12.6503 13.6784 12.3904 12.6079 11.6825C12.1317 11.3677 11.742 11.1021 11.742 11.0923C11.742 11.0825 12.1317 10.8169 12.6079 10.502C13.6784 9.79419 13.8468 9.53431 13.5753 9.00914C13.4337 8.73533 13.025 8.53584 12.7518 8.60711C12.6482 8.6341 11.9892 9.03707 11.2873 9.50263C10.2063 10.2196 9.96398 10.3491 9.70308 10.3491H9.39508V9.95605C9.39508 9.58813 9.44546 9.48768 10.1845 8.38267C11.116 6.98992 11.1683 6.87007 11.0096 6.49049C10.8472 6.10168 10.4835 5.92198 10.0948 6.03847C9.84296 6.11388 9.71935 6.2493 9.19332 7.02598C8.85795 7.52103 8.55957 7.8992 8.53024 7.86634C8.5009 7.83348 8.22779 7.43224 7.9234 6.97482C7.49594 6.33238 7.3128 6.12311 7.1191 6.0556C6.81525 5.9496 6.83277 5.94881 6.52626 6.0822ZM29.0777 7.65222C28.7568 7.81956 28.6453 7.99597 28.6425 8.34066C28.6406 8.56925 28.694 8.69411 28.8686 8.86872L29.0973 9.09739H30.1622C31.3791 9.09739 31.5548 9.03527 31.699 8.55384C31.8139 8.17035 31.6352 7.80157 31.2581 7.64393C30.8818 7.48676 29.384 7.49247 29.0777 7.65222ZM22.2763 10.0466C21.9064 10.2615 21.9121 10.1226 21.9121 18.9544C21.9121 25.5264 21.8917 27.2574 21.8143 27.2779C20.58 27.6065 19.8584 27.9893 19.1343 28.6997C18.5681 29.2553 18.1514 29.9304 17.8628 30.7599C17.6831 31.2763 17.6562 31.4773 17.6578 32.293C17.6593 33.0972 17.6895 33.3223 17.8683 33.8637C18.5179 35.8303 20.2788 37.2121 22.3559 37.3853C24.3497 37.5516 26.376 36.388 27.2733 34.5617C27.6478 33.7996 27.7851 33.2017 27.7876 32.3239C27.7916 30.8569 27.3433 29.7773 26.2959 28.732C25.4779 27.9158 24.7872 27.5337 23.6918 27.2916L23.4767 27.2441V18.8417V10.4393L23.2742 10.1986C23.1068 9.99971 23.0151 9.95832 22.7461 9.96028C22.567 9.96161 22.3557 10.0004 22.2763 10.0466ZM28.8425 10.981C28.5506 11.3279 28.5649 11.7342 28.8797 12.036L29.1193 12.2658L30.7768 12.2902C32.711 12.3187 32.9741 12.269 33.2091 11.8305C33.3869 11.4989 33.3388 11.2074 33.0604 10.9291L32.8716 10.7402H30.9583H29.0451L28.8425 10.981ZM28.8686 14.0982C28.4578 14.509 28.6063 15.1497 29.1611 15.3607C29.4688 15.4777 30.9515 15.451 31.2581 15.323C31.6352 15.1653 31.8139 14.7965 31.699 14.413C31.5548 13.9316 31.3791 13.8695 30.1622 13.8695H29.0973L28.8686 14.0982ZM28.8686 17.2274C28.6085 17.4875 28.5565 17.94 28.7542 18.2223C28.9758 18.5386 29.2229 18.5731 31.0855 18.548C32.8221 18.5246 32.8555 18.5211 33.0499 18.3384C33.1585 18.2362 33.2694 18.053 33.2961 17.9313C33.3594 17.6432 33.1511 17.204 32.8961 17.0879C32.768 17.0294 32.0796 16.9987 30.899 16.9987H29.0973L28.8686 17.2274ZM23.671 28.9041C24.209 29.0421 24.7434 29.3617 25.1991 29.8182C27.2331 31.8558 26.1079 35.299 23.2476 35.7895C22.194 35.9701 21.0191 35.582 20.2293 34.7921C18.9092 33.472 18.8461 31.3059 20.0891 29.9765C21.0827 28.914 22.2946 28.5511 23.671 28.9041Z" fill="#003154"/>
</svg>
